<?xml version="1.0" standalone="no"?><!DOCTYPE svg PUBLIC "-//W3C//DTD SVG 1.1//EN" "http://www.w3.org/Graphics/SVG/1.1/DTD/svg11.dtd"><svg t="1724234084794" class="icon" viewBox="0 0 1024 1024" version="1.1" xmlns="http://www.w3.org/2000/svg" p-id="7484" xmlns:xlink="http://www.w3.org/1999/xlink" width="200" height="200"><path d="M835.368421 458.105263c0-21.557895 18.863158-40.421053 40.421053-40.421052s40.421053 18.863158 40.421052 40.421052v323.368421c0 88.926316-72.757895 161.684211-161.68421 161.684211H215.578947c-88.926316 0-161.684211-72.757895-161.68421-161.684211V242.526316c0-88.926316 72.757895-161.684211 161.68421-161.684211h538.947369c21.557895 0 40.421053 18.863158 40.421052 40.421053S776.084211 161.684211 754.526316 161.684211H215.578947C169.768421 161.684211 134.736842 196.715789 134.736842 242.526316v538.947368c0 45.810526 35.031579 80.842105 80.842105 80.842105h538.947369c45.810526 0 80.842105-35.031579 80.842105-80.842105V458.105263z" fill="#1296db" p-id="7485" data-spm-anchor-id="a313x.search_index.0.i4.34a13a81HXaZCH" class="selected"></path><path d="M417.684211 727.578947c-10.778947 0-21.557895-2.694737-29.642106-10.778947-16.168421-16.168421-16.168421-40.421053 0-56.589474l512-512c8.084211-10.778947 18.863158-13.473684 29.642106-13.473684 10.778947 0 21.557895 2.694737 29.642105 10.778947 16.168421 16.168421 16.168421 40.421053 0 56.589474l-512 512c-10.778947 10.778947-18.863158 13.473684-29.642105 13.473684z" fill="#1296db" p-id="7486" data-spm-anchor-id="a313x.search_index.0.i5.34a13a81HXaZCH" class="selected"></path></svg>